<svg xmlns="http://www.w3.org/2000/svg" viewBox="0 0 100 100" style="overflow:visible">
  <defs>
    <radialGradient id="h-body" cx="30%" cy="30%" r="70%">
      <stop offset="0%" stop-color="#38bdf8"/>
      <stop offset="60%" stop-color="#0284c7"/>
      <stop offset="100%" stop-color="#0f172a"/>
    </radialGradient>
    <linearGradient id="o-ring" x1="0%" y1="0%" x2="100%" y2="100%">
      <stop offset="0%" stop-color="#fff" stop-opacity="0.9"/>
      <stop offset="50%" stop-color="#38bdf8" stop-opacity="0.1"/>
      <stop offset="100%" stop-color="#fff" stop-opacity="0.9"/>
    </linearGradient>
  </defs>
  <ellipse cx="50" cy="95" rx="25" ry="6" fill="#000" style="animation:float-shadow 4s infinite"/>
  <g style="animation:float 4s ease-in-out infinite">
    <circle cx="50" cy="50" r="35" fill="url(#h-body)" />
    <path d="M 40 25 h 20 v 15 h 15 v 20 h -15 v 15 h -20 v -15 h -15 v -20 h 15 z" fill="#fff" opacity="0.15" />
    <path d="M 28 45 L 35 45 L 42 65 L 50 42 L 58 65 L 65 45 L 72 45" fill="none" stroke="#fff" stroke-width="5" stroke-linecap="round" stroke-linejoin="round" style="animation:pulse-glow 2s infinite alternate" />
    <path d="M 22 30 Q 50 5 78 30 A 35 35 0 0 0 22 30" fill="#fff" opacity="0.2" />
    <ellipse cx="50" cy="50" rx="48" ry="16" fill="none" stroke="url(#o-ring)" stroke-width="2" transform="rotate(-20 50 50)" />
    <circle cx="10" cy="35" r="4" fill="#fff" style="animation:pulse-glow 2s infinite alternate" />
  </g>
</svg>